<svg width="18" height="14" viewBox="0 0 18 14" fill="none" xmlns="http://www.w3.org/2000/svg">
<path d="M12.6747 4.06821C12.7662 3.58041 13.3525 3.40232 13.6342 3.81091C14.2591 4.71723 14.625 5.8159 14.625 7.00002C14.625 8.18415 14.2591 9.28281 13.6342 10.1891C13.3525 10.5977 12.7662 10.4196 12.6747 9.93184L12.6414 9.75407C12.6105 9.58943 12.6489 9.42042 12.7362 9.27747C13.1415 8.61406 13.375 7.83431 13.375 7.00002C13.375 6.16573 13.1415 5.38598 12.7362 4.72258C12.6489 4.57963 12.6105 4.41061 12.6414 4.24597L12.6747 4.06821Z" fill="#C1C7D0"/>
<path d="M5.26377 4.72258C4.85852 5.38598 4.625 6.16573 4.625 7.00002C4.625 7.83431 4.85852 8.61406 5.26377 9.27747C5.3511 9.42042 5.38949 9.58943 5.35862 9.75407L5.32528 9.93184C5.23382 10.4196 4.64749 10.5977 4.36577 10.1891C3.74089 9.28281 3.375 8.18415 3.375 7.00002C3.375 5.8159 3.74089 4.71723 4.36577 3.81091C4.64749 3.40232 5.23382 3.58041 5.32528 4.06821L5.35862 4.24597C5.38949 4.41062 5.3511 4.57963 5.26377 4.72258Z" fill="#C1C7D0"/>
<path d="M13.2337 1.08703L13.2236 1.14069C13.18 1.37332 13.2732 1.6088 13.4534 1.7622C14.9351 3.02324 15.875 4.90187 15.875 7.00002C15.875 9.09817 14.9351 10.9768 13.4534 12.2378C13.2732 12.3912 13.18 12.6267 13.2236 12.8594L13.2337 12.913C13.3156 13.3497 13.8136 13.5613 14.1568 13.2791C15.9691 11.789 17.125 9.52948 17.125 7.00002C17.125 4.47056 15.9691 2.21107 14.1568 0.720923C13.8136 0.438736 13.3156 0.650325 13.2337 1.08703Z" fill="#C1C7D0"/>
<path d="M4.5466 1.7622C4.72685 1.6088 4.81999 1.37332 4.77637 1.14069L4.76631 1.08703C4.68443 0.650325 4.18643 0.438736 3.84322 0.720923C2.03087 2.21107 0.875 4.47056 0.875 7.00002C0.875 9.52948 2.03086 11.789 3.84322 13.2791C4.18642 13.5613 4.68443 13.3497 4.76631 12.913L4.77637 12.8594C4.81999 12.6267 4.72685 12.3912 4.5466 12.2378C3.06489 10.9768 2.125 9.09817 2.125 7.00002C2.125 4.90187 3.06489 3.02324 4.5466 1.7622Z" fill="#C1C7D0"/>
<path d="M10.875 7.00002C10.875 8.03556 10.0355 8.87502 9 8.87502C7.96447 8.87502 7.125 8.03556 7.125 7.00002C7.125 5.96449 7.96447 5.12502 9 5.12502C10.0355 5.12502 10.875 5.96449 10.875 7.00002Z" fill="#C1C7D0"/>
</svg>
