<svg width="20" height="20" viewBox="0 0 20 20" fill="none" xmlns="http://www.w3.org/2000/svg">
<path fill-rule="evenodd" clip-rule="evenodd" d="M13.9584 14.1667C13.9584 14.5119 13.6785 14.7917 13.3334 14.7917C12.9882 14.7917 12.7084 14.5119 12.7084 14.1667V5.83341C12.7084 5.48823 12.9882 5.20841 13.3334 5.20841C13.6785 5.20841 13.9584 5.48823 13.9584 5.83341V14.1667Z" fill="#C1C7D0"/>
<path fill-rule="evenodd" clip-rule="evenodd" d="M9.99999 12.2916C10.3452 12.2916 10.625 12.0118 10.625 11.6666V5.83325C10.625 5.48807 10.3452 5.20825 9.99999 5.20825C9.65482 5.20825 9.37499 5.48807 9.37499 5.83325V11.6666C9.37499 12.0118 9.65482 12.2916 9.99999 12.2916Z" fill="#C1C7D0"/>
<path fill-rule="evenodd" clip-rule="evenodd" d="M7.29166 9.16655C7.29166 9.51173 7.01184 9.79155 6.66666 9.79155C6.32148 9.79155 6.04166 9.51173 6.04166 9.16655V5.83322C6.04166 5.48804 6.32148 5.20822 6.66666 5.20822C7.01184 5.20822 7.29166 5.48804 7.29166 5.83322V9.16655Z" fill="#C1C7D0"/>
<path fill-rule="evenodd" clip-rule="evenodd" d="M2.5 16.1024C2.5 16.8743 3.12571 17.5 3.89757 17.5H16.1024C16.8743 17.5 17.5 16.8743 17.5 16.1024V3.89757C17.5 3.12571 16.8743 2.5 16.1024 2.5H3.89757C3.12571 2.5 2.5 3.12571 2.5 3.89757V16.1024ZM3.89757 16.25H16.1024C16.1839 16.25 16.25 16.1839 16.25 16.1024V3.89757C16.25 3.81607 16.1839 3.75 16.1024 3.75H3.89757C3.81607 3.75 3.75 3.81607 3.75 3.89757V16.1024C3.75 16.1839 3.81607 16.25 3.89757 16.25Z" fill="#C1C7D0"/>
</svg>
